<svg width="150" height="34" viewBox="0 0 150 34" fill="none" xmlns="http://www.w3.org/2000/svg">
<g clip-path="url(#clip0_748_5633)">
<path d="M46.839 5.52762C46.2888 3.47692 44.668 1.86166 42.6097 1.31358C38.8789 0.317499 23.9193 0.317498 23.9193 0.317498C23.9193 0.317498 8.95979 0.317499 5.22901 1.31358C3.17088 1.86166 1.54975 3.47692 0.999686 5.52762C0 9.2449 0 17.0004 0 17.0004C0 17.0004 0 24.7562 0.999686 28.4734C1.54975 30.5239 3.17088 32.1393 5.22901 32.6872C8.95979 33.6836 23.9193 33.6836 23.9193 33.6836C23.9193 33.6836 38.8789 33.6836 42.6097 32.6872C44.668 32.1393 46.2888 30.5239 46.839 28.4734C47.8388 24.7562 47.8388 17.0004 47.8388 17.0004C47.8388 17.0004 47.8388 9.2449 46.839 5.52762Z" fill="#ED1D24"/>
<path d="M19.1328 24.1504L31.5613 17.0006L19.1328 9.85062V24.1504Z" fill="white"/>
<path d="M74.7397 27.3989C75.0016 26.7177 75.1331 25.6042 75.1331 24.059V17.548C75.1331 16.0483 75.0016 14.9521 74.7397 14.2588C74.4774 13.5658 74.0155 13.219 73.3544 13.219C72.7156 13.219 72.2648 13.5658 72.0029 14.2588C71.7406 14.9521 71.6095 16.0483 71.6095 17.548V24.059C71.6095 25.6042 71.7347 26.7177 71.986 27.3989C72.2364 28.081 72.6924 28.4215 73.3544 28.4215C74.0155 28.4215 74.4774 28.081 74.7397 27.3989ZM69.4374 30.6714C68.4903 30.0359 67.8174 29.047 67.4189 27.7058C67.0196 26.3655 66.8203 24.5814 66.8203 22.3544V19.3206C66.8203 17.071 67.0479 15.2642 67.5043 13.9009C67.9603 12.5374 68.6727 11.5435 69.6426 10.9184C70.6117 10.2936 71.8832 9.98098 73.4571 9.98098C75.0079 9.98098 76.2506 10.2993 77.1859 10.9353C78.1207 11.5716 78.8051 12.5661 79.2387 13.9179C79.6714 15.2702 79.8884 17.071 79.8884 19.3206V22.3544C79.8884 24.5814 79.6773 26.3713 79.2556 27.7231C78.8335 29.0752 78.1491 30.0639 77.2028 30.6885C76.2562 31.3133 74.9736 31.626 73.3544 31.626C71.689 31.626 70.3833 31.3075 69.4374 30.6714Z" fill="#252323"/>
<path d="M142.694 13.6105C142.455 13.906 142.295 14.3889 142.215 15.059C142.135 15.7295 142.096 16.7463 142.096 18.1097V19.6096H145.55V18.1097C145.55 16.7693 145.505 15.7524 145.414 15.059C145.322 14.3661 145.157 13.8778 144.918 13.5935C144.678 13.3093 144.308 13.1673 143.806 13.1673C143.304 13.1673 142.933 13.3153 142.694 13.6105ZM142.096 22.4048V23.4616C142.096 24.8027 142.135 25.8081 142.215 26.4782C142.295 27.1487 142.459 27.6373 142.711 27.9443C142.962 28.2507 143.349 28.4044 143.874 28.4044C144.581 28.4044 145.066 28.1316 145.328 27.586C145.59 27.0407 145.733 26.1318 145.755 24.8589L149.827 25.0977C149.85 25.2801 149.861 25.5299 149.861 25.8475C149.861 27.7794 149.331 29.2225 148.27 30.1769C147.21 31.131 145.71 31.6084 143.772 31.6084C141.446 31.6084 139.814 30.8815 138.88 29.4267C137.944 27.9729 137.477 25.723 137.477 22.6776V19.0301C137.477 15.8942 137.961 13.6051 138.931 12.1615C139.9 10.7187 141.559 9.99713 143.909 9.99713C145.527 9.99713 146.771 10.2926 147.637 10.8833C148.504 11.4746 149.114 12.3949 149.468 13.6444C149.821 14.8944 149.998 16.6217 149.998 18.8257V22.4048H142.096Z" fill="#252323"/>
<path d="M57.9415 22.013L52.5703 2.68547H57.2571L59.1386 11.4459C59.6179 13.6053 59.9711 15.4459 60.1991 16.9679H60.3361C60.4956 15.8773 60.8492 14.0482 61.3966 11.4801L63.3466 2.68547H68.0334L62.5941 22.013V31.2852H57.9415V22.013Z" fill="#252323"/>
<path d="M95.1308 10.3902V31.2854H91.4359L91.0252 28.729H90.9228C89.919 30.6604 88.4136 31.626 86.4069 31.626C85.0156 31.626 83.9894 31.172 83.3279 30.2627C82.6663 29.3543 82.3359 27.9335 82.3359 26.0019V10.3902H87.057V25.7291C87.057 26.6614 87.1598 27.3258 87.3649 27.7232C87.5701 28.1213 87.9123 28.3197 88.3911 28.3197C88.8019 28.3197 89.1953 28.1951 89.5713 27.9445C89.9478 27.6947 90.227 27.3772 90.4097 26.9906V10.3902H95.1308Z" fill="#252323"/>
<path d="M119.35 10.3902V31.2854H115.655L115.244 28.729H115.142C114.137 30.6604 112.632 31.626 110.626 31.626C109.234 31.626 108.208 31.172 107.547 30.2627C106.885 29.3543 106.555 27.9335 106.555 26.0019V10.3902H111.276V25.7291C111.276 26.6614 111.378 27.3258 111.583 27.7232C111.789 28.1213 112.131 28.3197 112.61 28.3197C113.021 28.3197 113.414 28.1951 113.79 27.9445C114.167 27.6947 114.446 27.3772 114.628 26.9906V10.3902H119.35Z" fill="#252323"/>
<path d="M107.961 6.46988H103.274V31.2852H98.6556V6.46988H93.9688V2.68609H107.961V6.46988Z" fill="#252323"/>
<path d="M130.646 22.2534C130.646 23.776 130.582 24.9692 130.457 25.8324C130.332 26.6965 130.121 27.3099 129.824 27.6731C129.528 28.0368 129.128 28.2184 128.627 28.2184C128.239 28.2184 127.88 28.128 127.549 27.9456C127.218 27.764 126.951 27.4915 126.745 27.1275V15.2654C126.905 14.6977 127.178 14.2316 127.566 13.8679C127.954 13.5049 128.375 13.3226 128.832 13.3226C129.311 13.3226 129.681 13.5102 129.944 13.8849C130.206 14.2598 130.388 14.8905 130.491 15.777C130.594 16.663 130.646 17.9243 130.646 19.5604V22.2534ZM134.973 13.7301C134.687 12.4125 134.225 11.4582 133.587 10.8669C132.948 10.2765 132.07 9.98085 130.953 9.98085C130.086 9.98085 129.277 10.2253 128.524 10.7136C127.772 11.2023 127.19 11.8444 126.779 12.6397H126.745L126.745 1.62943H122.195V31.2848H126.095L126.574 29.3081H126.677C127.041 30.0124 127.589 30.5692 128.319 30.9783C129.048 31.3872 129.858 31.5918 130.748 31.5918C132.344 31.5918 133.519 30.8587 134.271 29.3932C135.024 27.9272 135.4 25.6382 135.4 22.5247V19.2183C135.4 16.8779 135.258 15.0485 134.973 13.7301Z" fill="#252323"/>
</g>
<defs>
<clipPath id="clip0_748_5633">
<rect width="150" height="33.3661" fill="white" transform="translate(0 0.317383)"/>
</clipPath>
</defs>
</svg>
